# xmcd
#
# Track frame offsets: 
#        150
#        2599
#        32232
#        49078
#        69089
#        90592
#        104074
#        122817
#
# Disc length: 1926 seconds
#
# Revision: 0
# Processed by: cddbd v1.5.2PL0 Copyright (c) Steve Scherf et al.
# Submitted via: ExactAudioCopy v0.95b3
#
DISCID=61078408
DTITLE=Alan Parsons Project  - The Complete Audio Guide To The Alan Pa
DTITLE=rsons Project - Disc 1
DYEAR=1900
DGENRE=
TTITLE0=I Robot (excerpt)
TTITLE1=A Day In The Life
TTITLE2=Get Back
TTITLE3=Maxwell's Silver Hammer
TTITLE4=Maybe I'm Amazed
TTITLE5=I Am Your Singer
TTITLE6=Hi, Hi, Hi
TTITLE7=The Air That I Breathe
EXTD=
EXTT0=
EXTT1=
EXTT2=
EXTT3=
EXTT4=
EXTT5=
EXTT6=
EXTT7=
PLAYORDER=
